<?xml version="1.0" encoding="UTF-8"?>
<svg width="18px" height="26px" viewBox="0 0 18 26" version="1.1" xmlns="http://www.w3.org/2000/svg" xmlns:xlink="http://www.w3.org/1999/xlink">
    <!-- Generator: Sketch 51.2 (57519) - http://www.bohemiancoding.com/sketch -->
    <title>Shape</title>
    <desc>Created with Sketch.</desc>
    <defs></defs>
    <g id="Symbols" stroke="none" stroke-width="1" fill="none" fill-rule="evenodd" fill-opacity="0.7">
        <g id="NAV_TOP_-Copy" transform="translate(-60.000000, -12.000000)" fill="#FFFFFF" fill-rule="nonzero">
            <g id="Group-3" transform="translate(60.000000, 9.000000)">
                <path d="M6.661,3 L6.795,3.002 L8.131,3.002 C10.77,3.002 11.876,3.466 13.125,4.43 C14.944,5.854 15.23,7.922 15.23,8.955 C15.23,10.238 14.837,11.593 13.874,12.697 C13.16,13.553 11.919,14.794 9.486,15.085 C7.823,15.285 6.595,15.212 5.98,15.146 L5.98,13.84 C6.253,13.878 6.656,13.914 7.202,13.914 C8.858,13.914 10.031,13.087 10.745,12.195 C11.555,11.212 11.725,10.286 11.76,9.458 L7.205,9.458 L7.205,8.176 L11.72,8.176 C11.604,7.31 11.272,6.648 10.735,5.997 C9.7,4.714 8.236,4.5 7.273,4.5 L0.768,4.498 L0,3 L6.66,3 L6.661,3 Z M0.344,29 L1.148,27.436 L1.148,5.592 L4.698,5.592 L4.698,27.412 L7.206,27.412 L7.206,18.889 L10.482,18.889 L10.482,27.403 L13.32,27.403 L13.32,23.525 C13.32,21.174 13.198,17.903 10.55,16.214 L12.092,15.648 C15.286,16.834 16.883,19.931 16.883,24.01 L16.883,27.438 L17.687,29 L0.343,29 L0.344,29 Z" id="Shape"></path>
            </g>
        </g>
    </g>
</svg>