<?xml version="1.0" encoding="UTF-8"?>
<svg width="345px" height="14px" viewBox="0 0 345 14" version="1.1" xmlns="http://www.w3.org/2000/svg" xmlns:xlink="http://www.w3.org/1999/xlink">
    <!-- Generator: Sketch 51.2 (57519) - http://www.bohemiancoding.com/sketch -->
    <title>LOGO</title>
    <desc>Created with Sketch.</desc>
    <defs></defs>
    <g id="Symbols" stroke="none" stroke-width="1" fill="none" fill-rule="evenodd">
        <g id="NAV_TOP_" transform="translate(-180.000000, -18.000000)" fill="#FFFFFF">
            <path d="M188.801589,31.9999432 C188.213222,31.9999432 187.624567,31.6048884 187.624567,30.7923263 L187.624567,25.6850362 L182.352603,25.6850362 L182.352603,30.7923263 C182.352603,31.6048884 181.764525,31.9999432 181.176158,31.9999432 C180.588655,31.9999432 180,31.6048884 180,30.7923263 L180,19.2078443 C180,18.3944294 180.588655,18.0002274 181.176158,18.0002274 C181.764525,18.0002274 182.352603,18.3944294 182.352603,19.2078443 L182.352603,23.363024 L187.624567,23.363024 L187.624567,19.2078443 C187.624567,18.3944294 188.213222,18.0002274 188.801589,18.0002274 C189.389956,18.0002274 189.978611,18.3944294 189.978611,19.2078443 L189.978611,30.7923263 C189.978611,31.6048884 189.389956,31.9999432 188.801589,31.9999432 Z M200.426937,31.8604235 L197.814438,31.8604235 C195.861474,31.8604235 194.237558,30.5368481 194.16639,28.4009947 L194.16639,28.354384 C194.16639,27.6810857 194.661113,27.1933779 195.343412,27.1933779 C195.90844,27.1933779 196.496807,27.5651272 196.519281,28.3083416 C196.543772,29.1203354 197.014293,29.5620009 197.814438,29.5620009 L200.426937,29.5620009 C201.274911,29.5620009 201.722093,29.1442092 201.722093,28.2614466 C201.722093,28.2389939 201.745432,27.9135711 201.745432,27.5651272 C201.745432,27.1473355 201.722093,26.6596277 201.651789,26.4734688 C201.486689,26.1724883 200.898322,25.9397186 199.109306,25.9397186 C196.073252,25.9397186 194.16639,25.2897257 194.16639,22.0400455 L194.16639,21.6682961 C194.16639,19.5091374 195.790305,18.1162143 197.814438,18.1162143 L200.355768,18.1162143 C202.42773,18.1162143 203.981342,19.4622424 203.981342,21.5523376 C203.981342,22.2955521 203.392975,22.6897542 202.804319,22.6897542 C202.263783,22.6897542 201.697602,22.3415944 201.651789,21.6216854 C201.58062,20.7630809 201.274911,20.4143527 200.355768,20.4143527 L197.814438,20.4143527 C197.014293,20.4143527 196.519281,20.855734 196.519281,21.6682961 L196.519281,22.0400455 C196.519281,22.5504903 196.59045,22.9222396 196.684381,23.1311354 C196.920362,23.4790109 197.509017,23.641296 199.109306,23.641296 C202.192326,23.641296 204.075849,24.3151627 204.075849,27.1473355 L204.075849,28.2614466 C204.075849,30.4675004 202.497746,31.8604235 200.426937,31.8604235 Z M217.183754,31.8604235 L209.86432,31.8604235 C209.252326,31.8604235 208.687298,31.3033679 208.687298,30.6994174 L208.687298,19.2533466 C208.687298,18.6499645 209.252326,18.0934773 209.86432,18.0934773 L216.948638,18.0934773 C217.725444,18.0934773 218.12566,18.6738383 218.12566,19.2533466 C218.12566,19.8339918 217.725444,20.3913315 216.948638,20.3913315 L211.041342,20.3913315 L211.041342,23.7345176 L213.465402,23.7345176 C214.242208,23.7345176 214.642424,24.3151627 214.642424,24.8955237 C214.642424,25.4761688 214.242208,26.0565298 213.465402,26.0565298 L211.041342,26.0565298 L211.041342,29.5620009 L217.183754,29.5620009 C217.96056,29.5620009 218.360776,30.1190564 218.360776,30.6994174 C218.360776,31.2800625 217.96056,31.8604235 217.183754,31.8604235 Z M268.300309,20.4261759 L265.475168,20.4261759 L265.475168,30.8271991 C265.475168,31.5940031 264.886513,31.9882052 264.298146,31.9882052 C263.709779,31.9882052 263.121124,31.5940031 263.121124,30.8271991 L263.121124,20.4261759 L260.297712,20.4261759 C259.520906,20.4261759 259.12069,19.8694046 259.12069,19.2887594 C259.12069,18.7083985 259.520906,18.1277533 260.297712,18.1277533 L268.300309,18.1277533 C269.07625,18.1277533 269.477331,18.7083985 269.477331,19.2887594 C269.477331,19.8694046 269.07625,20.4261759 268.300309,20.4261759 Z M305.024866,31.8950689 L304.082961,31.8950689 C303.801167,31.8950689 303.18802,31.5702146 303.024073,31.2453602 L298.881301,22.4231349 L298.905792,30.8270001 C298.905792,31.5938042 298.317137,31.9880063 297.72877,31.9880063 C297.140403,31.9880063 296.551748,31.5938042 296.551748,30.8270001 L296.551748,19.2891289 C296.551748,18.6846099 297.116776,18.1281228 297.72877,18.1281228 L298.669523,18.1281228 C298.95247,18.1281228 299.588091,18.4529771 299.728411,18.7778315 L303.871183,27.6463834 L303.847844,19.2197812 C303.847844,18.4529771 304.436499,18.058775 305.024866,18.058775 C305.613233,18.058775 306.201888,18.4529771 306.201888,19.2197812 L306.201888,30.7349154 C306.201888,31.3380134 305.63686,31.8950689 305.024866,31.8950689 Z M356.388754,31.8830183 L349.068455,31.8830183 C348.455309,31.8830183 347.891433,31.3265312 347.891433,30.7231491 L347.891433,19.2770783 C347.891433,18.673412 348.455309,18.1169248 349.068455,18.1169248 L356.152485,18.1169248 C356.929579,18.1169248 357.329507,18.6967174 357.329507,19.2770783 C357.329507,19.8577235 356.929579,20.414779 356.152485,20.414779 L350.245189,20.414779 L350.245189,23.7582493 L352.669537,23.7582493 C353.446343,23.7582493 353.846559,24.3386102 353.846559,24.9192554 C353.846559,25.4996163 353.446343,26.0802615 352.669537,26.0802615 L350.245189,26.0802615 L350.245189,29.5851641 L356.388754,29.5851641 C357.164695,29.5851641 357.565776,30.1425039 357.565776,30.7231491 C357.565776,31.30351 357.164695,31.8830183 356.388754,31.8830183 Z M367.872657,31.8830183 L365.260158,31.8830183 C363.307195,31.8830183 361.683279,30.5602956 361.61211,28.424158 L361.61211,28.3781157 C361.61211,27.7051016 362.106834,27.2171096 362.788844,27.2171096 C363.35416,27.2171096 363.942527,27.5885747 363.965866,28.3317891 C363.989493,29.1432144 364.459725,29.5851641 365.260158,29.5851641 L367.872657,29.5851641 C368.720632,29.5851641 369.167813,29.1673725 369.167813,28.2857468 C369.167813,28.2624414 369.190288,27.9381555 369.190288,27.5885747 C369.190288,27.170783 369.167813,26.682791 369.097221,26.4980531 C368.931545,26.19622 368.344042,25.9631661 366.554162,25.9631661 C363.518972,25.9631661 361.61211,25.3134574 361.61211,22.063493 L361.61211,21.6917436 C361.61211,19.5325849 363.236026,18.1396618 365.260158,18.1396618 L367.802353,18.1396618 C369.873162,18.1396618 371.427062,19.4859741 371.427062,21.5757851 C371.427062,22.3189996 370.838407,22.7132016 370.25004,22.7132016 C369.70835,22.7132016 369.143322,22.3653261 369.097221,21.6451329 C369.026052,20.7865284 368.720632,20.4380844 367.802353,20.4380844 L365.260158,20.4380844 C364.459725,20.4380844 363.965866,20.8794657 363.965866,21.6917436 L363.965866,22.063493 C363.965866,22.5747904 364.037035,22.9456871 364.130102,23.1542987 C364.366082,23.5027426 364.954449,23.6653119 366.554162,23.6653119 C369.638046,23.6653119 371.521569,24.3386102 371.521569,27.170783 L371.521569,28.2857468 C371.521569,30.4909478 369.943467,31.8830183 367.872657,31.8830183 Z M392.208171,31.8484297 L386.088233,31.8484297 C385.265038,31.8484297 384.865398,31.2680688 384.865398,30.6874236 C384.865398,30.1070627 385.265038,29.5505755 386.088233,29.5505755 L387.971756,29.5505755 L387.971756,20.4034958 L386.088233,20.4034958 C385.265038,20.4034958 384.865398,19.8450192 384.865398,19.2646582 C384.865398,18.6842973 385.265038,18.1036521 386.088233,18.1036521 L392.208171,18.1036521 C393.031943,18.1036521 393.431871,18.6842973 393.431871,19.2646582 C393.431871,19.8450192 393.031943,20.4034958 392.208171,20.4034958 L390.325512,20.4034958 L390.325512,29.5505755 L392.208171,29.5505755 C393.031943,29.5505755 393.431871,30.1070627 393.431871,30.6874236 C393.431871,31.2680688 393.031943,31.8484297 392.208171,31.8484297 Z M404.633807,31.8484297 L402.044647,31.8484297 C400.043277,31.8484297 398.396599,30.5026858 398.396599,28.2491687 L398.396599,21.7029132 C398.396599,19.4513855 400.043277,18.1036521 402.044647,18.1036521 L404.633807,18.1036521 C406.492839,18.1036521 408.0234,19.2424897 408.235178,21.1927526 C408.235178,21.2612477 408.258516,21.3314481 408.258516,21.3777746 C408.258516,22.096831 407.646523,22.4924542 407.058156,22.4924542 C406.539805,22.4924542 405.998115,22.1670314 405.928099,21.4940173 C405.856642,20.7971295 405.457579,20.4034958 404.633807,20.4034958 L402.044647,20.4034958 C401.220011,20.4034958 400.749778,20.843456 400.749778,21.7029132 L400.749778,28.2491687 C400.749778,29.1086258 401.220011,29.5505755 402.044647,29.5505755 L404.633807,29.5505755 C405.504544,29.5505755 405.928099,29.1327839 405.928099,28.2491687 L405.928099,26.4856331 L404.162422,26.4856331 C403.386481,26.4856331 402.985688,25.9049879 402.985688,25.324627 C402.985688,24.7439818 403.386481,24.1636209 404.162422,24.1636209 L407.104833,24.1636209 C407.716827,24.1636209 408.280991,24.7218133 408.280991,25.324627 L408.280991,28.2491687 C408.280991,30.4785278 406.704617,31.8484297 404.633807,31.8484297 Z M421.060857,31.8705698 L420.118951,31.8705698 C419.837157,31.8705698 419.224011,31.5471366 419.060064,31.2217138 L414.917292,22.4000568 L414.941783,30.8039221 C414.941783,31.5693051 414.353416,31.9649282 413.764761,31.9649282 C413.176394,31.9649282 412.587739,31.5693051 412.587739,30.8039221 L412.587739,19.2646298 C412.587739,18.6618161 413.152767,18.1036237 413.764761,18.1036237 L414.705514,18.1036237 C414.988749,18.1036237 415.624081,18.4290465 415.764402,18.7544692 L419.907174,27.6224527 L419.883835,19.1961347 C419.883835,18.4290465 420.47249,18.0351286 421.060857,18.0351286 C421.649224,18.0351286 422.237015,18.4290465 422.237015,19.1961347 L422.237015,30.7115532 C422.237015,31.3140827 421.672851,31.8705698 421.060857,31.8705698 Z M441.817994,31.8594287 L439.205495,31.8594287 C437.251955,31.8594287 435.628615,30.5358533 435.557447,28.4005684 L435.557447,28.3545261 C435.557447,27.6795225 436.05217,27.19352 436.73418,27.19352 C437.299497,27.19352 437.887864,27.5649851 437.911203,28.3081995 C437.934829,29.1196248 438.405062,29.5615745 439.205495,29.5615745 L441.817994,29.5615745 C442.665968,29.5615745 443.11315,29.1437829 443.11315,28.2601677 C443.11315,28.2379991 443.135624,27.9125764 443.135624,27.5649851 C443.135624,27.1471934 443.11315,26.6592014 443.042846,26.4724741 C442.877746,26.1712093 442.289379,25.9401449 440.500363,25.9401449 C437.464309,25.9401449 435.557447,25.2892994 435.557447,22.0393349 L435.557447,21.6678698 C435.557447,19.5087111 437.181939,18.1146511 439.205495,18.1146511 L441.746825,18.1146511 C443.819651,18.1146511 445.372399,19.4623845 445.372399,21.5513429 C445.372399,22.2945573 444.783743,22.688191 444.195377,22.688191 C443.65484,22.688191 443.088659,22.3408839 443.042846,21.6215433 C442.971389,20.7620861 442.665968,20.4144948 441.746825,20.4144948 L439.205495,20.4144948 C438.405062,20.4144948 437.911203,20.8561603 437.911203,21.6678698 L437.911203,22.0393349 C437.911203,22.5497797 437.981507,22.9212448 438.07515,23.1301407 C438.311419,23.477732 438.900074,23.6403013 440.500363,23.6403013 C443.583383,23.6403013 445.466906,24.3150206 445.466906,27.1471934 L445.466906,28.2601677 C445.466906,30.4673582 443.888803,31.8594287 441.817994,31.8594287 Z M458.480217,22.5737104 C457.938528,22.5737104 457.3735,22.2482876 457.327687,21.5513997 C457.256518,20.8323433 456.87964,20.4145517 456.03253,20.4145517 L453.44337,20.4145517 C452.618734,20.4145517 452.148213,20.8562171 452.148213,21.713969 L452.148213,28.2602245 C452.148213,29.1196817 452.618734,29.5616314 453.44337,29.5616314 L456.03253,29.5616314 C456.87964,29.5616314 457.256518,29.1438397 457.327687,28.4227938 C457.3735,27.7276112 457.938528,27.4024726 458.480217,27.4024726 C459.068584,27.4024726 459.657239,27.8202643 459.657239,28.5393207 C459.657239,28.6558477 459.657239,28.7482166 459.632748,28.8647435 C459.375158,30.7928379 457.868224,31.8594856 456.03253,31.8594856 L453.44337,31.8594856 C451.442865,31.8594856 449.818661,30.4895836 449.818661,28.2602245 L449.818661,21.713969 C449.818661,19.4865994 451.442865,18.114708 453.44337,18.114708 L456.03253,18.114708 C457.868224,18.114708 459.375158,19.1833452 459.632748,21.10945 C459.657239,21.2279665 459.657239,21.3183459 459.657239,21.4368623 C459.657239,22.1559187 459.068584,22.5737104 458.480217,22.5737104 Z M472.553223,32 C471.964856,32 471.376201,31.6043769 471.376201,30.7929515 L471.376201,25.6850931 L466.104237,25.6850931 L466.104237,30.7929515 C466.104237,31.6043769 465.51587,32 464.927215,32 C464.338848,32 463.751346,31.6043769 463.751346,30.7929515 L463.751346,19.2073327 C463.751346,18.3939179 464.338848,18 464.927215,18 C465.51587,18 466.104237,18.3939179 466.104237,19.2073327 L466.104237,23.3630809 L471.376201,23.3630809 L471.376201,19.2073327 C471.376201,18.3939179 471.964856,18 472.553223,18 C473.14159,18 473.730245,18.3939179 473.730245,19.2073327 L473.730245,30.7929515 C473.730245,31.6043769 473.14159,32 472.553223,32 Z M523.775148,31.9297144 L516.125801,31.9297144 C515.513807,31.9297144 514.948779,31.3732272 514.948779,30.7687083 L514.948779,19.2774478 C514.948779,18.464033 515.537146,18.0703993 516.125801,18.0703993 C516.714168,18.0703993 517.302823,18.464033 517.302823,19.2774478 L517.302823,29.6318602 L523.775148,29.6318602 C524.598919,29.6318602 525,30.1883473 525,30.7687083 C525,31.3493534 524.598919,31.9297144 523.775148,31.9297144 Z M239.706395,31.988262 C239.212536,31.988262 238.717812,31.6858605 238.600542,31.0361518 L238.104954,28.3892852 L233.963046,28.3892852 C233.963046,28.3892852 233.469187,30.7112974 233.398883,31.0597414 C233.256545,31.6858605 232.763262,31.9649567 232.268826,31.9649567 C231.680459,31.9649567 231.068753,31.547165 231.068753,30.8508455 C231.068753,30.7579082 231.068753,30.6419497 231.091804,30.5484439 L233.469187,19.8924826 C233.751269,18.615518 234.763191,18.0118516 236.129516,18.0118516 C237.729229,18.0118516 238.43573,18.7314765 238.788981,19.8924826 C238.788981,19.8924826 240.200255,27.0202359 240.883417,30.5950547 C240.906756,30.6885605 240.906756,30.7806452 240.906756,30.8738667 C240.906756,31.5699019 240.294762,31.988262 239.706395,31.988262 Z M253.332363,25.7659798 L254.93294,30.4554782 C254.979906,30.5953105 255.003245,30.7348586 255.003245,30.8738383 C255.003245,31.5471366 254.391251,31.9882336 253.778393,31.9882336 C253.332363,31.9882336 252.907944,31.7787694 252.720657,31.2222822 L251.001946,26.2309507 L247.58815,26.2309507 L247.58815,30.8272275 C247.58815,31.5940315 247.000647,31.9882336 246.411992,31.9882336 C245.823625,31.9882336 245.23497,31.5940315 245.23497,30.8272275 L245.23497,19.2887878 C245.23497,18.6856899 245.800286,18.1277817 246.411992,18.1277817 L251.472178,18.1277817 C253.544141,18.1277817 255.120515,19.4976837 255.120515,21.7267586 L255.120515,22.6319739 C255.120515,24.1178343 254.41459,25.20864 253.332363,25.7659798 Z M290.881527,31.9878357 C290.387668,31.9878357 289.892944,31.686571 289.775674,31.0362939 L289.280086,28.3897115 L285.138178,28.3897115 C285.138178,28.3897115 284.644319,30.7108711 284.574015,31.0598835 C284.431677,31.686571 283.938394,31.965383 283.443958,31.965383 C282.855591,31.965383 282.243886,31.5470229 282.243886,30.8509876 C282.243886,30.7577661 282.243886,30.6418076 282.266936,30.5488703 L284.644319,19.8920563 C284.926401,18.6153759 285.938323,18.012278 287.304648,18.012278 C288.904361,18.012278 289.610862,18.7313344 289.964113,19.8920563 C289.964113,19.8920563 291.375387,27.0200938 292.058549,30.595481 C292.081888,30.6884184 292.081888,30.7807873 292.081888,30.8737246 C292.081888,31.5700441 291.469894,31.9878357 290.881527,31.9878357 Z M316.839603,31.8720477 L311.731587,31.8720477 C311.119593,31.8720477 310.554565,31.314708 310.554565,30.7110416 L310.554565,19.2891289 C310.554565,18.6846099 311.119593,18.1281228 311.731587,18.1281228 L316.839603,18.1281228 C318.910413,18.1281228 320.487651,19.4980247 320.487651,21.7265312 L320.487651,28.2736393 C320.487651,30.5021458 318.910413,31.8720477 316.839603,31.8720477 Z M339.679795,31.8829615 L334.572067,31.8829615 C333.959785,31.8829615 333.395333,31.3264743 333.395333,30.7230922 L333.395333,19.3006111 C333.395333,18.6966605 333.959785,18.1396049 334.572067,18.1396049 L339.679795,18.1396049 C341.750605,18.1396049 343.327843,19.5095069 343.327843,21.7385818 L343.327843,28.2856899 C343.327843,30.5141964 341.750605,31.8829615 339.679795,31.8829615 Z M492.710179,31.9297712 L490.121019,31.9297712 C488.120802,31.9297712 486.472971,30.5598693 486.472971,28.3322154 L486.472971,21.7842547 C486.472971,19.5566008 488.120802,18.1866989 490.121019,18.1866989 L492.710179,18.1866989 C494.781853,18.1866989 496.358227,19.5566008 496.358227,21.7842547 L496.358227,28.3322154 C496.358227,30.5598693 494.781853,31.9297712 492.710179,31.9297712 Z M506.829834,31.9297712 L504.240962,31.9297712 C502.241033,31.9297712 500.592625,30.5598693 500.592625,28.3322154 L500.592625,21.7842547 C500.592625,19.5566008 502.241033,18.1866989 504.240962,18.1866989 L506.829834,18.1866989 C508.901796,18.1866989 510.47817,19.5566008 510.47817,21.7842547 L510.47817,28.3322154 C510.47817,30.5598693 508.901796,31.9297712 506.829834,31.9297712 Z M236.623375,20.5657809 C236.575545,20.356885 236.458564,20.2636635 236.176482,20.2636635 C235.893535,20.2636635 235.752927,20.3102743 235.705961,20.5657809 L234.45777,26.0684098 L237.683128,26.0684098 L236.623375,20.5657809 Z M252.766471,21.7267586 C252.766471,20.843996 252.319289,20.4262043 251.472178,20.4262043 L247.58815,20.4262043 L247.58815,23.9089385 L251.472178,23.9089385 C252.319289,23.9089385 252.766471,23.5138838 252.766471,22.6319739 L252.766471,21.7267586 Z M287.798508,20.5656388 C287.750678,20.3567429 287.633696,20.2638056 287.351614,20.2638056 C287.068667,20.2638056 286.928059,20.3104164 286.881093,20.5656388 L285.632902,26.0685519 L288.85826,26.0685519 L287.798508,20.5656388 Z M318.133607,21.7265312 C318.133607,20.8443371 317.685561,20.425977 316.839603,20.425977 L312.908609,20.425977 L312.908609,29.5741935 L316.839603,29.5741935 C317.685561,29.5741935 318.133607,29.1558335 318.133607,28.2736393 L318.133607,21.7265312 Z M340.973799,21.7385818 C340.973799,20.8558192 340.525753,20.4380276 339.679795,20.4380276 L335.748801,20.4380276 L335.748801,29.5851073 L339.679795,29.5851073 C340.525753,29.5851073 340.973799,29.1673156 340.973799,28.2856899 L340.973799,21.7385818 Z M494.004183,21.7842547 C494.004183,20.9023447 493.558154,20.4848373 492.710179,20.4848373 L490.121019,20.4848373 C489.298112,20.4848373 488.826727,20.9265028 488.826727,21.7842547 L488.826727,28.3322154 C488.826727,29.1899673 489.298112,29.6316328 490.121019,29.6316328 L492.710179,29.6316328 C493.558154,29.6316328 494.004183,29.2138411 494.004183,28.3322154 L494.004183,21.7842547 Z M508.124126,21.7842547 C508.124126,20.9023447 507.676944,20.4848373 506.829834,20.4848373 L504.240962,20.4848373 C503.418055,20.4848373 502.945805,20.9265028 502.945805,21.7842547 L502.945805,28.3322154 C502.945805,29.1899673 503.418055,29.6316328 504.240962,29.6316328 L506.829834,29.6316328 C507.676944,29.6316328 508.124126,29.2138411 508.124126,28.3322154 L508.124126,21.7842547 Z" id="LOGO"></path>
        </g>
    </g>
</svg>